<svg width="20" height="20" viewBox="0 0 20 20" fill="none" xmlns="http://www.w3.org/2000/svg">
<rect width="20" height="20" fill="white"/>
<path fill-rule="evenodd" clip-rule="evenodd" d="M15.3433 4.91659L14.6758 16.2641C14.6509 16.6886 14.4647 17.0875 14.1554 17.3792C13.846 17.6709 13.4368 17.8333 13.0116 17.8333H6.98829C6.56308 17.8333 6.15392 17.6709 5.84455 17.3792C5.53518 17.0875 5.349 16.6886 5.32413 16.2641L4.65829 4.91659H2.91663V4.08325C2.91663 3.97274 2.96052 3.86676 3.03866 3.78862C3.11681 3.71048 3.22279 3.66659 3.33329 3.66659H16.6666C16.7771 3.66659 16.8831 3.71048 16.9613 3.78862C17.0394 3.86676 17.0833 3.97274 17.0833 4.08325V4.91659H15.3433ZM8.33329 1.58325H11.6666C11.7771 1.58325 11.8831 1.62715 11.9613 1.70529C12.0394 1.78343 12.0833 1.88941 12.0833 1.99992V2.83325H7.91663V1.99992C7.91663 1.88941 7.96052 1.78343 8.03866 1.70529C8.11681 1.62715 8.22279 1.58325 8.33329 1.58325ZM7.49996 6.99992L7.91663 14.4999H9.16663L8.83329 6.99992H7.49996ZM11.25 6.99992L10.8333 14.4999H12.0833L12.5 6.99992H11.25Z" fill="#172554"/>
</svg>
